<svg xmlns="http://www.w3.org/2000/svg" viewBox="0 0 105 100"><g fill="none" fill-rule="evenodd"><path stroke="#ff0" stroke-width=".366" d="M20.465 60.56h1.989v4.358h-1.989z"/><path fill="#24216a" fill-rule="nonzero" d="M84.947 100H20.054L0 38.197 52.5 0 105 38.196z"/><path fill="#fff" fill-rule="nonzero" d="M81.693 95.508H23.314L5.273 39.909l47.23-34.363 47.23 34.362z"/><path fill="#e01e13" d="M51.76 9.696c.032 6.635-3.56 12.259-16.562 20.67-19.7 13.63-18.732 19.62-21.137 26.775l-5.36-16.12z"/><path fill="#e01e13" d="M19.178 72.56c-3.59-10.311-2.066-18.013 1.398-23.95 3.234-5.545 8.095-9.686 13.512-13.42-3.572 4.411-5.943 8.008-7.495 11.048-4.198 8.228-3.43 13.335-2.029 17.605.234-5.716 1.029-11.299 7.024-15.88-4.151 10.192-1.667 16.403.604 19.418z"/><path fill="#e01e13" fill-rule="nonzero" d="M52.505 62.218 19.944 75.672l5.488 16.916h54.146l5.489-16.916z"/><path fill="#24216a" d="M50.117 48.54c-.628 5.848 1.657 6.75 3.889 8.02.154-2.46.959-3.102 2.076-3.352 5.318-1.186 6.806 4.73 10.217 6.717 1.883 1.084 5.72.625 7.686.053 6.85-1.995 9.293-9.02 9.846-14.31 1.166-.694 2.564-.76 2.9-3.696-5.618-2.307-10.318-5.075-14.533-8.085.544-.386 1.49-.345 1.68-1.287.054-.155-1.021-1.023-2.214-2.076-2.701-2.386-7.255-6.013-9.55-6.538-.052-2.477-.519-4.888-3.264-6.93.012 1.946-.286 3.975-1.054 5.742l-2.11-.165c1.05-3.965 1.158-8.234-1.22-12.051L96.31 41.02 86.077 72.556 53.404 59.627c-3.159-1.372-6.828-4.505-3.287-11.087"/><path fill="#201e5f" d="M59.773 32.699c2.248 1.182 3.505 2.814 4.317 4.917.881-.316 1.892-.382 3.032-.429 1.16-.363 1.592-1.432 1.681-2.574-.653.357-1.412.401-2.24.23-2-2.074-4.321-2.424-6.79-2.144"/><path fill="#fff" fill-rule="nonzero" d="M52.83 72.514c.22-2.228 3.292-1.938 3.292-1.938l-1.159-1.437s-1.381-.187-1.996 1.388q-.015.036-.035.092c-.008.024-.028.04-.054.032-.019-.005-.033-.022-.026-.054.007-.037.013-.057.02-.083.384-1.562 1.201-2.74 1.201-2.74l-1.53-2.069-1.531 2.07s.817 1.177 1.201 2.739c.007.026.013.046.02.083.007.032-.007.049-.026.054-.026.007-.046-.008-.054-.032l-.035-.092c-.615-1.575-1.996-1.388-1.996-1.388l-1.16 1.437s3.074-.29 3.293 1.938zM29.3 75.469V88.77h8.667l-.823-2.944h-4.087V75.469zm38.146.017c-1.29 0-2.33.957-2.33 2.147v7.34l1.276 3.78h6.987c1.291 0 2.33-.958 2.33-2.147v-2.598H72.16v1.973h-3.495v-7.658h3.495v1.908h3.55v-2.598c0-1.19-1.04-2.147-2.33-2.147zm-19.904-.001c1.29 0 2.33.958 2.33 2.148v8.973c0 1.19-1.04 2.147-2.33 2.147h-6.988l-1.276-3.779v-7.341c0-1.19 1.04-2.148 2.33-2.148Zm-1.22 2.838h-3.495v7.659h3.496v-7.659Zm9.028 4.737 3.892.924v1.998h-3.496v-1.008h-3.55l1.277 3.78h6.987c1.291 0 2.331-.959 2.331-2.148v-2.985c-.062-1.047-.884-1.945-4.077-2.574l-2.968-.726v-1.998h3.496v1.107h3.55v-1.797c0-1.19-1.04-2.148-2.332-2.148h-5.933c-1.29 0-2.33.958-2.33 2.148v3.414c.038 1.277 1.835 1.665 3.154 2.013Z"/></g></svg>